# xmcd
#
# Track frame offsets:
#       150
#       16006
#       37087
#       55207
#       76098
#       90016
#       110091
#       124475
#       147946
#       162622
#
# Disc length: 2358 seconds
#
# Revision: 0
# Processed by: cddbd v1.4PL0 Copyright (c) Steve Scherf et al.
# Submitted via: CD-DA_X-Tractor v0.21
#
DISCID=7d09340a
DTITLE=Sir Charles Jones - Love Machine
DYEAR=1900
DGENRE=
TTITLE0=Love Machine
TTITLE1=Is There Anybody Lonely?
TTITLE2=Friday
TTITLE3=Just Can't Let Go
TTITLE4=Let Me See You Move It
TTITLE5=Tell Me How You Want It
TTITLE6=Let's Get It On
TTITLE7=For Better Or For Worse
TTITLE8=Stop Fooling Around
TTITLE9=Just Like Fire
EXTD=
EXTT0=
EXTT1=
EXTT2=
EXTT3=
EXTT4=
EXTT5=
EXTT6=
EXTT7=
EXTT8=
EXTT9=
PLAYORDER=
